<svg xmlns="http://www.w3.org/2000/svg" viewBox="0 0 512 512"><defs/><path fill="#ffce2a" d="M415 182h-61l-21 24 21 25h61c4 0 7 3 7 6v132c0 4-3 6-7 6h-61l-21 23 21 26h61c31 0 55-25 55-55V237c0-30-24-55-55-55z"/><path fill="#ffad00" d="M354 113L177 92l21 420h156z"/><path fill="#ffce2a" d="M42 113v399h156V92z"/><path fill="#fdeb95" d="M104 435V191h31v244z"/><path fill="#ffce2a" d="M261 191h31v244h-31z"/><path fill="#fbd698" d="M354 85a59 59 0 00-92-49 74 74 0 00-64-36l-21 61 21 52h156V85z"/><path fill="#fff1d8" d="M134 36a59 59 0 00-92 49v28h51v102a27 27 0 0053 0V113h52V0c-27 0-51 14-64 36z"/><path fill="#ffce2a" d="M214 191h-16l-10 117 10 127h16z"/><path fill="#fdeb95" d="M182 191h16v244h-16z"/></svg>
