<svg xmlns="http://www.w3.org/2000/svg" fill-rule="evenodd" stroke-linejoin="round" stroke-miterlimit="2" clip-rule="evenodd" viewBox="0 0 17780 2455"><g fill="currentColor" fill-rule="nonzero"><path d="M2106 2256c-111 58-241 105-389 141-149 37-311 55-486 55-182 0-349-29-502-87a1111 1111 0 01-652-620c-62-146-93-309-93-489 0-181 32-346 95-493a1098 1098 0 01652-616c150-55 311-83 484-83 179 0 346 27 500 82 154 54 279 128 375 219l-346 395a599 599 0 00-212-153c-87-39-187-59-298-59a661 661 0 00-477 200 669 669 0 00-140 225 888 888 0 00-5 572 605 605 0 00351 373c87 36 186 53 297 53 64 0 125-5 182-14 58-10 112-25 161-47v-413h-433v-443h936v1202zM3625 1413c0-83-26-154-78-214-53-60-131-90-236-90-51 0-98 8-141 24s-80 38-112 66-58 60-77 97c-19 38-30 77-32 117h676zm484 202v64c0 22-1 42-3 61H2949c4 45 18 86 40 122 22 37 51 68 87 95a419 419 0 00254 85 418 418 0 00353-167l365 231a739 739 0 01-296 251 981 981 0 01-428 89c-120 0-233-19-340-57a825 825 0 01-280-163 757 757 0 01-189-264 885 885 0 01-69-359c0-131 22-249 67-355a801 801 0 01455-440c105-41 218-61 340-61 117 0 225 20 324 59 98 40 182 97 253 172 70 74 125 165 165 272 39 107 59 229 59 365zM6128 1590c0 130-23 248-70 354a794 794 0 01-192 269 880 880 0 01-282 172 957 957 0 01-343 61c-120 0-234-21-342-61a805 805 0 01-473-441 863 863 0 01-70-354c0-131 23-248 70-353a792 792 0 01473-433c108-38 222-57 342-57 121 0 236 19 343 57 106 39 200 95 282 167 81 73 145 161 192 266s70 222 70 353zm-506 0a455 455 0 00-99-281 361 361 0 00-282-127 361 361 0 00-281 127c-31 38-54 81-70 130a483 483 0 000 301c16 50 40 94 72 133a355 355 0 00282 130 355 355 0 00282-130c32-39 56-83 72-133 16-49 24-99 24-150zM8500 2394v-872c0-44-3-88-9-129-7-42-19-78-36-108s-40-54-69-72c-28-18-66-27-113-27-45 0-84 10-117 29s-61 45-84 77c-22 32-39 69-49 110-11 42-16 85-16 130v862h-526v-910c0-92-18-165-54-218-37-53-95-80-174-80-83 0-148 33-193 99-46 67-69 148-69 244v865h-529V798h509v221h7c19-34 43-67 72-99s63-60 104-85a583 583 0 01301-82c116 0 214 24 294 71s142 114 187 202c54-84 122-150 205-199 84-49 185-74 305-74 109 0 200 20 274 60 74 39 133 90 178 153s77 134 97 212c21 78 31 154 31 229v987h-526zM10523 1413c0-83-26-154-79-214-52-60-131-90-235-90-52 0-99 8-141 24-43 16-81 38-113 66s-57 60-77 97c-19 38-29 77-32 117h677zm484 202v64c0 22-1 42-4 61H9846c5 45 18 86 40 122 23 37 52 68 87 95a419 419 0 00255 85 418 418 0 00353-167l365 231a739 739 0 01-297 251 981 981 0 01-428 89c-119 0-232-19-339-57a825 825 0 01-281-163 757 757 0 01-189-264 885 885 0 01-69-359c0-131 23-249 68-355a801 801 0 01455-440c104-41 218-61 339-61 118 0 226 20 324 59 98 40 183 97 253 172 71 74 126 165 165 272 40 107 60 229 60 365zM11904 1192v609c0 75 15 131 43 169 29 37 81 56 156 56 25 0 53-2 82-7 28-4 52-10 72-19l6 385a976 976 0 01-574 8 417 417 0 01-269-295c-19-70-29-147-29-233v-673h-256V798h253V378h516v420h375v394h-375zM13561 1228a409 409 0 00-134-16c-71 0-130 12-178 38s-87 57-116 93-49 76-62 119c-13 42-19 80-19 112v820h-526V798h506v231h7c40-81 98-148 173-199s161-77 259-77a597 597 0 01113 13l-23 462zM14366 288c0 41-8 79-24 114a294 294 0 01-278 175 294 294 0 01-301-289 280 280 0 01183-264 312 312 0 01332 59c26 26 48 56 64 92 16 35 24 73 24 113zm-564 2106V798h525v1596h-525zM15843 1314a373 373 0 00-279-128c-55 0-105 11-150 34-45 22-84 52-116 89a449 449 0 00-103 287c1 56 9 108 26 157 18 49 43 93 76 130a359 359 0 00274 120c53 0 106-10 159-30 52-21 94-50 126-88l292 355a685 685 0 01-257 151 1052 1052 0 01-686-3 790 790 0 01-473-436 877 877 0 01-68-356c0-130 23-248 69-352a790 790 0 01472-438 1017 1017 0 01829 67c44 27 82 57 114 89l-305 352zM17298 1699h-67c-58 0-116 2-175 8-58 5-111 15-157 30s-84 37-113 66c-30 29-45 67-45 114 0 30 7 55 21 77 13 21 31 38 52 51 22 13 46 22 74 27s55 8 80 8c107 0 189-29 245-88 57-59 85-138 85-239v-54zm-964-683c94-90 203-157 328-202s253-67 383-67c135 0 249 16 342 49 92 34 168 85 226 154 57 70 99 157 126 263s40 231 40 377v804h-481v-170h-9a396 396 0 01-185 154c-82 37-171 55-267 55-64 0-130-9-199-26-68-17-131-45-187-83-57-39-103-90-140-154-36-64-54-143-54-237 0-116 31-209 94-279 63-71 145-125 244-164 99-38 210-64 332-77 121-12 240-19 355-19v-25c0-79-27-138-83-175s-124-56-205-56c-75 0-147 16-216 48-70 32-129 70-178 115l-266-285z"/></g></svg>
