<svg xmlns="http://www.w3.org/2000/svg" preserveAspectRatio="none" fill-rule="evenodd" clip-rule="evenodd" viewBox="0 0 7967 334"><defs/><clipPath id="a"><path d="M0 0h7967v333H0z"/></clipPath><g fill-rule="nonzero" stroke-width="4.2" clip-path="url(#a)"><path stroke-width="25" fill="transparent" stroke="#47727f" d="M4042 975l-204-800-196 796 400 4z"/><path stroke-width="25" fill="transparent" stroke="#497683" d="M4042 975l146-846-350 46 204 800z"/><path stroke-width="25" fill="transparent" stroke="#3f6473" d="M2604 125l350 1192 688-346-1038-846z"/><path stroke-width="25" fill="transparent" stroke="#4c7c88" d="M4042 975l837 213-691-1059-146 846z"/><path stroke-width="25" fill="transparent" stroke="#497582" d="M4188 129L3846 21l-8 154 350-46z"/><path stroke-width="25" fill="transparent" stroke="#426a78" d="M3838 175l-1234-50 1038 846 196-796z"/><path stroke-width="25" fill="transparent" stroke="#4c7d89" d="M4875 67l-687-384v446l687-62z"/><path stroke-width="25" fill="transparent" stroke="#4a7784" d="M4188 129v-446L3846 21l342 108z"/><path stroke-width="25" fill="transparent" stroke="#497683" d="M4188-317l-42-33-300 371 341-338z"/><path stroke-width="25" fill="transparent" stroke="#528691" d="M5100 104l-225-37 4 1120 221-1083z"/><path stroke-width="25" fill="transparent" stroke="#50818d" d="M4879 1188l-4-1121-687 62 691 1059z"/><path stroke-width="25" fill="transparent" stroke="#446e7c" d="M3529-662l-237 304 554 379-317-683z"/><path stroke-width="25" fill="transparent" stroke="#446f7d" d="M3846 21l-554-379 545 533 9-154z"/><path stroke-width="25" fill="transparent" stroke="#416776" d="M3292-358l-688 483 1234 50-546-533z"/><path stroke-width="25" fill="transparent" stroke="#568d96" d="M5763 1208L5100 104l-221 1083 884 21z"/><path stroke-width="25" fill="transparent" stroke="#50818d" d="M4875 67l-42-584-646 200 688 384z"/><path stroke-width="25" fill="transparent" stroke="#487380" d="M4146-350l-617-312 317 683 300-371z"/><path stroke-width="25" fill="transparent" stroke="#3c606f" d="M3292-358l-663 145-25 338 688-483z"/><path stroke-width="25" fill="transparent" stroke="#39596b" d="M2604 125l-596 592 946 600-350-1192z"/><path stroke-width="25" fill="transparent" stroke="#528691" d="M5100 104l-267-621 42 584 225 37z"/><path stroke-width="25" fill="transparent" stroke="#345264" d="M1829 517l775-392-633-404-142 796z"/><path stroke-width="25" fill="transparent" stroke="#365365" d="M1829 517l179 200 596-592-775 392z"/><path stroke-width="25" fill="transparent" stroke="#538993" d="M5100 104l275-162-542-459 267 621z"/><path stroke-width="25" fill="transparent" stroke="#579099" d="M5950 388L5375-58l-275 162 850 284z"/><path stroke-width="25" fill="transparent" stroke="#58929c" d="M5950 388l-521-500-54 54 575 446z"/><path stroke-width="25" fill="transparent" stroke="#375768" d="M1971-279l633 404 25-337-658-67z"/><path stroke-width="25" fill="transparent" stroke="#59939c" d="M5763 1208l187-821-850-283 663 1104z"/><path stroke-width="25" fill="transparent" stroke="#2e465a" d="M1221-21l333 667 275-129-608-538z"/><path stroke-width="25" fill="transparent" stroke="#59949d" d="M5950 388l-221-805-300 304 521 500z"/><path stroke-width="25" fill="transparent" stroke="#324b60" d="M1971-279l-292-42 150 838 142-796z"/><path stroke-width="25" fill="transparent" stroke="#5b99a0" d="M6117-454l-388 37 221 805 167-842z"/><path stroke-width="25" fill="transparent" stroke="#61a1a8" d="M7263 125L6117-454l-167 842 1313-263z"/><path stroke-width="25" fill="transparent" stroke="#2e465a" d="M1679-321L1221-21l608 538-150-838z"/><path stroke-width="25" fill="transparent" stroke="#2a3d53" d="M1221-21L579 942l975-296-333-667z"/><path stroke-width="25" fill="transparent" stroke="#25344c" d="M346-492L579 942l642-963-875-471z"/><path stroke-width="25" fill="transparent" stroke="#6ab2b7" d="M7817 908l-554-783-67 646 621 137z"/><path stroke-width="25" fill="transparent" stroke="#64a7ae" d="M7196 771l66-646-1312 263 1246 383z"/><path stroke-width="25" fill="transparent" stroke="#65a7ae" d="M7263 125l-334-979-812 400 1145 579z"/><path stroke-width="25" fill="transparent" stroke="#68adb2" d="M7263 125l-117-904-217-75 333 979z"/><path stroke-width="25" fill="transparent" stroke="#212c46" d="M346-492L75 1471l504-529L346-492z"/><path stroke-width="25" fill="transparent" stroke="#1e2a43" d="M346-492l-71-170L75 1471 346-492z"/><path stroke-width="25" fill="transparent" stroke="#6ab2b6" d="M7779-458l-633-321 117 904 516-583z"/><path stroke-width="25" fill="transparent" stroke="#6cb6ba" d="M7895-212l-116-246-516 583 632-337z"/><path stroke-width="25" fill="transparent" stroke="#6db7bb" d="M7895-212l-632 337 670-255-38-82zM7933-130l-670 255 554 783 116-1038z"/><path stroke-width="25" fill="transparent" stroke="#6fbbbd" d="M7939 1039l-6-1169-116 1038 122 131z"/><path stroke-width="25" fill="transparent" stroke="#1e2741" d="M275-662L0-1217l75 2688L275-662z"/><path stroke-width="25" fill="transparent" stroke="#1c253f" d="M75 1471L0-1217v4063l75-1375z"/><path stroke-width="25" fill="transparent" stroke="#6fbbbe" d="M7939 1039l28-2256-34 1087 6 1169zM7967 2846v-4063l-28 2256 28 1807z"/></g></svg>
