<svg xmlns="http://www.w3.org/2000/svg" fill-rule="evenodd" clip-rule="evenodd" preserveAspectRatio="none" viewBox="0 0 33196 1392"><g fill="none" stroke="#000" stroke-opacity="0.05" stroke-width="20.8"><path d="M15623 1464l1452-913-2241 435 789 478z"/><path d="M17075 551l-353-1847-1888 2282 2241-435zM14897-2271l-851 3091 788 166 63-3257z"/><path d="M16722-1296l-1825-975-63 3257 1888-2282zM17075 551l975-1370-1328-477 353 1847zM19025 2812l-228-1805-1722-456 1950 2261z"/><path d="M17075 551l1722 456-747-1826-975 1370zM13361 3767l2262-2303-789-478-1473 2781zM15623 1464l415 1908 1037-2821-1452 913zM14897-2271l-2075 768 1224 2323 851-3091zM12013-715l186 1950 1847-415-2033-1535z"/><path d="M14046 820l-685 2947 1473-2781-788-166zM19025 2812l478-1431-706-374 228 1805zM18797 1007l2033-3340-2780 1514 747 1826zM12822-1503l-809 788 2033 1535-1224-2323zM16038 3372l2987-560-1950-2261-1037 2821z"/><path d="M12200 1235l1161 2532 685-2947-1847 415z"/><path d="M12200 1235l82 2822 1079-290-1161-2532zM10996 3850l1286 207-83-2822-1203 2615zM9067-1379L10540 32l1473-747-2946-664z"/><path d="M12013-715L10540 32l1659 1203-186-1950zM22262-694l-1432-1639-1327 3714 2759-2075z"/><path d="M19503 1381l1327-3714-2033 3340 706 374zM10540 32l456 3818 1203-2615L10540 32zM19025 2812l2386 623-1908-2054-478 1431zM22304 986l-42-1680-2759 2075 2801-395z"/><path d="M21411 3435l892-2449-2800 395 1908 2054zM23797 32l-1141-2261-394 1535 1535 726zM6639-445l934 622 1494-1556-2428 934zM23943 903l-146-871-1494 954 1639-83z"/><path d="M23943 903l-1640 83 2054 2926-414-3009z"/><path d="M22304 986l1493-954-1535-726 41 1680zM7116 2148l3880 1702-456-3818-3424 2116zM24357 3912L22303 986l-892 2449 2946 477zM9067-1379L7573 177l2967-145-1473-1411zM23797 32l540-2241-1681-20L23797 32zM27075-507l-2738-1702-540 2241 3278-539z"/><path d="M7573 177l-457 1971L10540 32 7573 177z"/><path d="M7573 177l-934-622 477 2593 457-1971zM23943 903l3132-1410-3278 539 146 871zM24357 3912l1142-1141-1557-1868 415 3009z"/><path d="M6639-445L5249-258l1867 2406-477-2593z"/><path d="M5249-258v2800l1867-394L5249-258zM25499 2771l1265-706-2822-1162 1556 1868z"/><path d="M26764 2065l311-2572-3133 1410 2822 1162z"/><path d="M26764 2065l768-2759-457 187-311 2572zM5249-258L3320 737l1929 1805V-258zM26764 2065l1266 892-498-3651-768 2759z"/><path d="M3216-756l104 1493 1929-995-2033-498zM30416 675l-1473-2987-1411 1618 2884 1369zM3320 737l-851 955 2780 850L3320 737z"/><path d="M0 94l2469 1598 851-955L0 94z"/><path d="M0 94l3320 643-104-1493L0 94zM28030 2957l2386-2282-2884-1369 498 3651zM30810 1547l-394-872-892 2199 1286-1327z"/><path d="M29524 2874l892-2199-2386 2282 1493-83zM30416 675l394 872 2386-602-2780-270zM31432-1503l-2489-809 1473 2987 1016-2178zM33196-30l-1764-1473-1016 2178 2780-705zM0-507V94l3216-850L0-507zM0 94v2988l2469-1390L0 94z"/><path d="M33196 945V-30l-2780 705 2780 270zM33196 2273V945l-2386 602 2386 726zM33196-30v-3880l-1764 2407L33196-30z"/></g></svg>
