<?xml version="1.0" encoding="UTF-8" standalone="no"?><svg xmlns="http://www.w3.org/2000/svg" style="fill-rule:evenodd;clip-rule:evenodd;stroke-linejoin:round;stroke-miterlimit:2" version="1.1" viewBox="0 0 100 100" xml:space="preserve"><path fill="currentColor" d="M35 35V2a2.0006 2.0006 0 012-2h26a2.0006 2.0006 0 012 2v31c0 1.105.895 2 2 2h31a2.0006 2.0006 0 012 2v26a2.0006 2.0006 0 01-2 2H67c-1.105 0-2 .895-2 2v31a2.0006 2.0006 0 01-2 2H37a2.0006 2.0006 0 01-2-2V65H2a2.0006 2.0006 0 01-2-2V37a2.0006 2.0006 0 012-2h33z"/></svg>
