<svg xmlns="http://www.w3.org/2000/svg" fill-rule="evenodd" stroke-linejoin="round" stroke-miterlimit="2" clip-rule="evenodd" viewBox="0 0 7467 7467"><path fill="currentColor" d="M5435 713l105 56 414-716 1004 2307-2500 284 413-716-78-50a2135 2135 0 00-3196 1855 2137 2137 0 004273 0h1330A3467 3467 0 115435 713z"/></defs><use xlink:href="#reuse-0"/><clipPath id="a"><use xlink:href="#reuse-0"/></clipPath><g clip-path="url(#a)"><path d="M4792 1879l644-1167 104 57 414-716 1004 2307-2500 284 413-716-79-49z"/><path d="M5467 731a3467 3467 0 101733 3002H5870a2136 2136 0 11-1069-1850l666-1152z"/></g></svg>
