<svg xmlns="http://www.w3.org/2000/svg" viewBox="0 0 1576 449">
  <defs>
    <linearGradient id="a" x1="167" x2="248" y1="1959.1" y2="1710.8" gradientTransform="matrix(1 0 0 -1 4.2 1935.8)" gradientUnits="userSpaceOnUse">
      <stop offset="0" stop-color="#ff4ea3"/>
      <stop offset="1" stop-color="#ff5e5b"/>
    </linearGradient>
  </defs>
  <path d="M495.8 246.6c-22.6 2.5-41.4 1.2-41.4 1.2V106.5h28.8A63.6 63.6 0 0 1 547 173c0 46.2-23.8 65-51.2 73.7ZM617 147.8c-8.7-43.8-31.3-71.3-56.3-87.5-25-17.6-55-26.3-85-26.3H45.4c-15 0-21.2 15-21.2 22.5v5S23 251.8 25.4 354.4c3.7 60 63.7 60 63.7 60s196.4 0 291.4-1.2c5 0 8.8 0 13.8-1.2 53.7-13.7 58.7-63.7 58.7-91.3 107.7 4.8 184-71.5 164-172.8Z" style="fill:#fff"/>
  <path d="M632.6 144.9v-.2C622 91 592.6 62 569.7 47.2a165 165 0 0 0-93.9-29H45.4c-24.2 0-37 22.2-37 38.3v5c0 1.9-1.3 191.4 1.1 293.1v.6c2.5 38.7 24.3 57.2 42.2 65.9 18.6 9 36.7 9 37.4 9h.1c8 0 198.2 0 291.4-1.1 5.4 0 10.6 0 17.4-1.7h.2a85.9 85.9 0 0 0 60-49.3c5.5-12 8.8-25.6 10-41.4 26-.7 50.5-5.8 72.8-15.3 23.5-10 43.4-24.4 59.1-42.6 30.9-36 42.5-83.4 32.6-133.8ZM41.3 353.6c-2.3-100-1.2-284.2-1.2-292v-5c0-.4 1.2-6.8 5.4-6.8h430.4a133 133 0 0 1 76.4 23.8c25.9 16.8 42.5 42.8 49.4 77.3 8 40.7-1 78.7-25.5 107.1-27.5 32-72 49-122.3 46.8a15.9 15.9 0 0 0-16.6 15.8c0 43-15.3 67.9-46.7 76-3.1.7-5.4.7-9.8.7h-.4c-82.7 1-242.4 1.2-289.4 1.2h-1.7c-.1 0-11.9-.2-23.6-6-15-7.2-23.2-20.3-24.4-39Z"/>
  <path d="M453.4 263.6c.5 0 5.6.4 13.7.4 10.4 0 20.6-.6 30.4-1.6l3-.7c41.4-13.1 62.3-43 62.3-88.8a80 80 0 0 0-79.6-82.2h-28.7c-8.8 0-15.9 7-15.9 15.8v141.3c0 8.3 6.5 15.2 14.8 15.8Zm16.9-31.3v-110h13c14.5 0 27.5 6 36.5 16.9l.2.3a48.7 48.7 0 0 1 11.2 33.4c0 31.6-11.6 49-38.8 58.1a248 248 0 0 1-22.1 1.3Z"/>
  <path d="M235.5 334.1c5 2.5 7.6 0 7.6 0s68.8-62.5 100-98.7C370.6 202.9 372 149 325.6 129c-47.5-20-86.3 23.7-86.3 23.7-33.8-37.5-85-35-108.8-10-23.8 25-15 67.6 2.5 92.5C149.2 258 221.8 323 233 333c0-1.3 1.3 0 2.5 1.2Z" style="fill:#ff5e5b"/>
  <path d="M237.9 336c2.7.6 5.2-1.9 5.2-1.9s68.8-62.5 100-98.7C370.6 202.9 372 149 325.6 129c-47.5-20-86.3 23.7-86.3 23.7-33.8-37.5-85-35-108.8-10-23.8 25-15 67.6 2.5 92.5 15.3 21.3 92 90.4 101.6 99 1 .8 2 1.5 3.3 1.7Z" style="fill:url(#a)"/>
  <path d="M920.6 328.1c1 3 1.6 5.8 1.6 8.4 0 7.1-2.7 13-8 17.7-5.4 4.7-11.6 7-18.7 7a21.7 21.7 0 0 1-17.7-9L792.7 240l-37.3 35.7v61.6a23 23 0 0 1-6.9 17.3c-4.6 4.4-10.5 6.7-17.8 6.7s-13-2.3-17.5-7a23.1 23.1 0 0 1-6.9-17V110.5c0-6.8 2.4-12.5 7-17 4.8-4.6 10.8-7 18.1-7s12.9 2.3 17.3 6.7a23.4 23.4 0 0 1 6.7 17.3v106.7L881 93.6c6-6 12.4-9 19.2-9 6 0 11.1 2.5 15.3 7.4 4.2 5 6.3 10.2 6.3 15.7s-2.4 10.6-7 15.4l-85.6 81.6 87.5 115.8c1.6 2 2.9 4.6 4 7.6ZM1138.8 312.8a99.8 99.8 0 0 1-38.7 38.7c-16.3 9.1-34.3 13.7-54 13.7s-37.9-4.6-54-13.7c-16.3-9.2-29.1-22-38.5-38.7-9.5-16.6-14.2-35.4-14.2-56.3s4.7-39.7 14.2-56.3a101.7 101.7 0 0 1 38.4-38.9c16.2-9.3 34.3-14 54.2-14s37.6 4.7 54 14a101.3 101.3 0 0 1 38.6 38.9c9.4 16.6 14.1 35.4 14.1 56.3s-4.7 39.7-14 56.3Zm-41-90.7a56.7 56.7 0 0 0-51.6-31.6 56.6 56.6 0 0 0-51.6 31.6c-5.4 10.1-8 21.6-8 34.4s2.6 24.2 8 34.1c5.4 10 12.6 17.7 21.6 23.2s19 8.2 30 8.2 21-2.7 30-8.2c9-5.5 16.2-13.2 21.6-23.2 5.4-10 8-21.3 8-34.1s-2.7-24.3-8-34.4ZM1193.2 257.7c-4.6-4.5-7-10.1-7-17s2.4-12 7-16.4a23.5 23.5 0 0 1 17-6.7h68.3c6.8 0 12.5 2.3 17 6.9 4.6 4.6 7 10.3 7 17s-2.3 12-7 16.4a24 24 0 0 1-17 6.4h-68.3c-6.8 0-12.5-2.2-17-6.6ZM1429.6 120.1a28 28 0 0 0-5.5 16.7v18.4h35.7c6.3 0 11.5 2 15.7 6.1 4.2 4 6.3 9.2 6.3 15.5s-2 11.4-6.3 15.5c-4.2 4-9.4 6-15.7 6h-35.7v139c0 6.8-2.2 12.5-6.7 17-4.4 4.7-10 7-16.8 7s-12.5-2.3-17-7a23.5 23.5 0 0 1-6.6-17V198.4h-21.2c-6.3 0-11.5-2-15.7-6-4.2-4.1-6.3-9.3-6.3-15.6s2.1-11.4 6.3-15.5c4.2-4 9.4-6 15.7-6h21.2v-18.1c0-19.6 6.7-35.6 20.2-47.9 13.5-12.3 33-18.4 58.3-18.4a52 52 0 0 1 25.3 5.9c7.2 3.9 10.8 10 10.8 18 0 6.3-1.8 11.4-5.5 15.3-3.7 4-8 6-13.3 6a23 23 0 0 1-4.1-.5l-4.6-.8a67 67 0 0 0-15.7-2.3c-8.9 0-15.1 2.5-18.8 7.6Zm83.2 1.4c-3.7-3-5.5-8-5.5-15.3v-7.5c0-7.3 2-12.4 6-15.3 3.8-2.9 10.1-4.3 18.8-4.3 9.1 0 15.5 1.4 19.2 4.3 3.6 2.9 5.5 8 5.5 15.3v7.5c0 7.5-2 12.7-5.7 15.5-3.8 2.7-10.3 4-19.4 4s-15.2-1.4-18.9-4.2Zm36.1 232.9c-4.4 4.6-10 6.9-16.9 6.9s-12.4-2.3-16.8-7a23.5 23.5 0 0 1-6.7-17v-162c0-6.9 2.2-12.6 6.7-17.1 4.4-4.6 10-6.9 16.8-6.9s12.5 2.3 17 6.9a23.5 23.5 0 0 1 6.6 17v162.1c0 6.8-2.2 12.5-6.7 17Z"/>
</svg>
